<svg width="79" height="68" viewBox="0 0 79 68" fill="none" xmlns="http://www.w3.org/2000/svg">
<g clip-path="url(#clip0_808_1305)">
<path fill-rule="evenodd" clip-rule="evenodd" d="M78.8617 22.874H6.06738C6.04557 22.4825 6.03467 22.0906 6.03467 21.6986C6.03467 20.2338 6.18697 18.7691 6.49157 17.3301H78.1682C78.631 19.0874 78.8624 20.893 78.8624 22.6985C78.8624 22.757 78.8622 22.8155 78.8617 22.874Z" fill="white"/>
<path fill-rule="evenodd" clip-rule="evenodd" d="M70.7537 39.5058H15.1433L12.1856 36.5481C11.3705 35.733 10.6365 34.8676 9.9834 33.9619H75.5918C74.7822 35.2337 73.8222 36.4373 72.712 37.5476L70.7537 39.5058Z" fill="white"/>
<path fill-rule="evenodd" clip-rule="evenodd" d="M54.1219 56.1372H31.7749L26.231 50.5933H59.6658L54.1219 56.1372Z" fill="white"/>
<path fill-rule="evenodd" clip-rule="evenodd" d="M36.9771 64.4902L37.063 64.4043L39.8833 67.2251L67.6028 39.5056H12.0251L9.06739 36.5479C8.25232 35.7328 7.51825 34.8674 6.8652 33.9617H72.4409C74.5888 30.5877 75.6788 26.7344 75.7108 22.8739H2.9165C3.19375 27.85 5.23314 32.7463 9.03467 36.5479L23.0802 50.5934H56.182L50.6381 56.1373H28.6241L36.9771 64.4902ZM3.34069 17.33H75.0173C74.1026 13.8567 72.2838 10.5721 69.561 7.84912C61.3599 -0.352051 48.0635 -0.352051 39.8623 7.84912L39.7974 7.91406L38.7329 6.84912C30.5317 -1.35205 17.2354 -1.35205 9.03467 6.84912C6.05168 9.83211 4.15369 13.4892 3.34069 17.33Z" fill="white"/>
<path fill-rule="evenodd" clip-rule="evenodd" d="M76.7538 22.874H3.95947C3.93766 22.4825 3.92676 22.0906 3.92676 21.6986C3.92676 20.2338 4.07906 18.7691 4.38366 17.3301H76.0603C76.5231 19.0874 76.7545 20.893 76.7545 22.6985C76.7545 22.757 76.7543 22.8155 76.7538 22.874Z" fill="white"/>
<path fill-rule="evenodd" clip-rule="evenodd" d="M68.6458 39.5058H13.0354L10.0777 36.5481C9.26261 35.733 8.52855 34.8676 7.87549 33.9619H73.4839C72.6743 35.2337 71.7143 36.4373 70.604 37.5476L68.6458 39.5058Z" fill="white"/>
<path fill-rule="evenodd" clip-rule="evenodd" d="M52.0144 56.1372H29.6674L24.1235 50.5933H57.5583L52.0144 56.1372Z" fill="white"/>
<path fill-rule="evenodd" clip-rule="evenodd" d="M34.8696 64.4902L34.9556 64.4043L37.7759 67.2251L48.8637 56.1373H26.5494L21.0055 50.5934H54.4076L65.4954 39.5056H9.91769L6.95996 36.5479C6.1449 35.7328 5.41083 34.8674 4.75777 33.9617H70.3335C72.4814 30.5877 73.5714 26.7344 73.6034 22.8739H0.809082C1.08633 27.85 3.12572 32.7463 6.92725 36.5479L34.8696 64.4902ZM1.23326 17.33H72.9099C71.9951 13.8567 70.1764 10.5721 67.4536 7.84912C59.2524 -0.352051 45.9561 -0.352051 37.7549 7.84912L37.6899 7.91406L36.6255 6.84912C28.4243 -1.35205 15.1279 -1.35205 6.92725 6.84912C3.94426 9.83211 2.04627 13.4892 1.23326 17.33Z" fill="white"/>
<path fill-rule="evenodd" clip-rule="evenodd" d="M78.8617 22.874H6.06738C6.04557 22.4825 6.03467 22.0906 6.03467 21.6986C6.03467 20.2338 6.18697 18.7691 6.49157 17.3301H78.1682C78.631 19.0874 78.8624 20.893 78.8624 22.6985C78.8624 22.757 78.8622 22.8155 78.8617 22.874Z" fill="#FF5ABE" style="mix-blend-mode:multiply"/>
<path fill-rule="evenodd" clip-rule="evenodd" d="M70.7537 39.5058H15.1433L12.1856 36.5481C11.3705 35.733 10.6365 34.8676 9.9834 33.9619H75.5918C74.7822 35.2337 73.8222 36.4373 72.712 37.5476L70.7537 39.5058Z" fill="#FF5ABE" style="mix-blend-mode:multiply"/>
<path fill-rule="evenodd" clip-rule="evenodd" d="M54.1219 56.1372H31.7749L26.231 50.5933H59.6658L54.1219 56.1372Z" fill="#FF5ABE" style="mix-blend-mode:multiply"/>
<path fill-rule="evenodd" clip-rule="evenodd" d="M36.9771 64.4902L37.063 64.4043L39.8833 67.2251L67.6028 39.5056H12.0251L9.06739 36.5479C8.25232 35.7328 7.51825 34.8674 6.8652 33.9617H72.4409C74.5888 30.5877 75.6788 26.7344 75.7108 22.8739H2.9165C3.19375 27.85 5.23314 32.7463 9.03467 36.5479L23.0802 50.5934H56.182L50.6381 56.1373H28.6241L36.9771 64.4902ZM3.34069 17.33H75.0173C74.1026 13.8567 72.2838 10.5721 69.561 7.84912C61.3599 -0.352051 48.0635 -0.352051 39.8623 7.84912L39.7974 7.91406L38.7329 6.84912C30.5317 -1.35205 17.2354 -1.35205 9.03467 6.84912C6.05168 9.83211 4.15369 13.4892 3.34069 17.33Z" fill="#FF5ABE" style="mix-blend-mode:multiply"/>
<path fill-rule="evenodd" clip-rule="evenodd" d="M76.7538 22.874H3.95947C3.93766 22.4825 3.92676 22.0906 3.92676 21.6986C3.92676 20.2338 4.07906 18.7691 4.38366 17.3301H76.0603C76.5231 19.0874 76.7545 20.893 76.7545 22.6985C76.7545 22.757 76.7543 22.8155 76.7538 22.874Z" fill="#5AFFBA" style="mix-blend-mode:multiply"/>
<path fill-rule="evenodd" clip-rule="evenodd" d="M68.6458 39.5058H13.0354L10.0777 36.5481C9.26261 35.733 8.52855 34.8676 7.87549 33.9619H73.4839C72.6743 35.2337 71.7143 36.4373 70.604 37.5476L68.6458 39.5058Z" fill="#5AFFBA" style="mix-blend-mode:multiply"/>
<path fill-rule="evenodd" clip-rule="evenodd" d="M52.0144 56.1372H29.6674L24.1235 50.5933H57.5583L52.0144 56.1372Z" fill="#5AFFBA" style="mix-blend-mode:multiply"/>
<path fill-rule="evenodd" clip-rule="evenodd" d="M34.8696 64.4902L34.9556 64.4043L37.7759 67.2251L48.8637 56.1373H26.5494L21.0055 50.5934H54.4076L65.4954 39.5056H9.91769L6.95996 36.5479C6.1449 35.7328 5.41083 34.8674 4.75777 33.9617H70.3335C72.4814 30.5877 73.5714 26.7344 73.6034 22.8739H0.809082C1.08633 27.85 3.12572 32.7463 6.92725 36.5479L34.8696 64.4902ZM1.23326 17.33H72.9099C71.9951 13.8567 70.1764 10.5721 67.4536 7.84912C59.2524 -0.352051 45.9561 -0.352051 37.7549 7.84912L37.6899 7.91406L36.6255 6.84912C28.4243 -1.35205 15.1279 -1.35205 6.92725 6.84912C3.94426 9.83211 2.04627 13.4892 1.23326 17.33Z" fill="#5AFFBA" style="mix-blend-mode:multiply"/>
</g>
<defs>
<clipPath id="clip0_808_1305">
<rect width="78.0533" height="66.5269" fill="white" transform="translate(0.809082 0.698242)"/>
</clipPath>
</defs>
</svg>
